<?xml  version="1.0" encoding="UTF-8"?>
<!DOCTYPE svg PUBLIC "-//W3C//DTD SVG 1.0//EN" "http://www.w3.org/TR/2001/REC-SVG-20010904/DTD/svg10.dtd" >
<svg xmlns="http://www.w3.org/2000/svg" >
<metadata>
<version>1.0</version>
<id><![CDATA[Proxima N W01 At Smbd It]]></id>
<vendor>Monotype Imaging Inc.</vendor>
<credits>
<name>Fonts.com WebFonts</name>
<URL>http://webfonts.fonts.com</URL>
<role>Home of the Web fonts</role>
</credits>
<license>
<URL>http://webfonts.fonts.com/Legal</URL>
</license>
<copyright><![CDATA[Copyright (c) Mark Simonson, 2005. All rights reserved.]]></copyright>
<trademark><![CDATA[Proxima Nova is a trademark of Mark Simonson.]]></trademark>
<licensee>
<name></name>
</licensee>
</metadata>
<defs >
<font horiz-adv-x="522" id="43232f3d-daf2-47dc-b9c6-5b298013cdf2">
<font-face font-family="" panose-1="2 0 5 6 3 0 0 2 0 4" ascent="741" descent="-259" units-per-em="1000" alphabetic="0">
</font-face>
<missing-glyph horiz-adv-x="0" />

<glyph unicode="&#xA;" />
<glyph unicode="&#xD;" horiz-adv-x="0" />
<glyph unicode=" " horiz-adv-x="258" />
<glyph unicode="!" horiz-adv-x="244" d="M68 205L151 667H279L159 205H68ZM75 -11Q49 -11 31 8T12 54Q12 85 34 107T88 129Q115 129 133 110T152 65Q152 33 130 11T75 -11Z"  />
<glyph unicode="&quot;" horiz-adv-x="380" d="M115 391Q118 447 121 493Q122 512 123 531T125 566T127 593T128 608Q130 638 149 657T197 677Q218 677 233 662T249 624Q249 616 247 609T242 597Q241 595 237 585T227 559T214 526T200 489Q182 445 162 391H115ZM282 391Q285 447 288 493Q289 512 290 531T292 566T294 593T295 608Q297 638 316 657T364 677Q385 677 400 662T416 624Q416 616 414 609T409 597Q408 595 404 585T394 559T381 526T367 489Q349 445 329 391H282Z"  />
<glyph unicode="#" horiz-adv-x="607" d="M188 0L286 175H184L87 0H7L104 175H4L41 244H143L242 423H140L176 492H281L377 667H457L361 492H462L558 667H638L541 492H642L607 423H503L403 244H508L472 175H365L268 0H188ZM423 423H322L223 244H323L423 423Z"  />
<glyph unicode="$" horiz-adv-x="605" d="M291 -12L272 -100H192L213 -3Q147 10 96 39T15 111L89 196Q114 161 152 137T237 101L279 294Q247 306 216 321T160 356T120 404T105 470Q105 510 122 547T173 614T252 660T356 678H365L385 768H465L443 668Q495 657 538 632T611 571L536 487Q513 515 483 533T419 563L380 389Q412 376 444 361T501 325T541 276T557 210Q557 166 540 126T491 56T411 7T303 -12H291ZM433 188Q433 214 411 232T353 265L314 92Q345 92 368 101T405 124T426 155T433 188ZM229 490Q229 466 251 449T307 418L342 575H339Q315 575 295 568T261 550T238 523T229 490Z"  />
<glyph unicode="%" horiz-adv-x="747" d="M75 0L648 667H716L142 0H75ZM519 -12Q487 -12 459 -3T410 25T377 68T364 125Q364 168 379 204T419 265T477 305T546 319Q577 319 605 310T655 283T688 240T701 182Q701 139 686 103T646 42T588 2T519 -12ZM522 55Q542 55 560 64T593 88T615 126T624 175Q624 209 601 231T543 253Q523 253 505 244T472 219T450 181T441 132Q441 99 464 77T522 55ZM240 346Q208 346 180 355T131 383T97 426T84 483Q84 526 99 562T139 623T197 663T266 677Q297 677 325 668T375 641T409 598T422 540Q422 497 407 461T367 400T309 360T240 346ZM242 413Q263 413 281 422T314 446T336 484T344 533Q344 567 322 589T264 611Q243 611 225 602T192 577T170 539T162 490Q162 457 184 435T242 413Z"  />
<glyph unicode="&amp;" horiz-adv-x="645" d="M427 0Q419 10 411 21T393 45Q354 19 311 4T219 -12Q175 -12 137 -2T71 30T26 83T10 160Q10 208 26 243T69 305T130 349T203 383Q194 412 189 439T184 493Q184 532 199 565T241 623T303 662T379 677Q412 677 441 669T493 645T529 605T542 549Q542 505 524 474T476 421T408 383T331 353Q341 333 352 313T374 273Q388 249 400 227T427 183Q459 218 484 253T525 316L601 268Q575 230 543 189T474 112Q510 58 555 0H427ZM235 72Q263 72 291 83T346 113Q327 142 311 168T284 212Q254 263 231 312Q186 290 156 258T126 173Q126 148 135 129T159 98T193 79T235 72ZM290 493Q290 476 293 458T303 419Q333 429 359 440T404 466T435 497T446 539Q446 569 427 584T382 600Q366 600 350 593T320 573T299 539T290 493Z"  />
<glyph unicode="&apos;" horiz-adv-x="214" d="M115 391Q118 447 121 493Q122 512 123 531T125 566T127 593T128 608Q130 638 149 657T197 677Q218 677 233 662T249 624Q249 616 247 609T242 597Q241 595 237 585T227 559T214 526T200 489Q182 445 162 391H115Z"  />
<glyph unicode="(" horiz-adv-x="276" d="M97 -199Q62 -139 43 -62T24 100Q24 178 42 256T94 410T178 554T291 685L345 630Q246 507 190 366T134 69Q134 12 145 -46T172 -156L97 -199Z"  />
<glyph unicode=")" horiz-adv-x="277" d="M179 685Q214 625 232 548T251 386Q251 308 233 230T181 76T97 -68T-16 -199L-70 -144Q29 -20 85 121T141 418Q141 474 130 532T103 642L179 685Z"  />
<glyph unicode="*" horiz-adv-x="347" d="M173 376L204 491L97 442L81 492L191 532L103 592L141 636L221 567L241 677H297L266 562L373 612L390 561L281 522L367 461L329 417L249 486L230 376H173Z"  />
<glyph unicode="+" horiz-adv-x="502" d="M301 304L255 96H181L227 304H42L57 371H242L286 572H360L316 371H501L486 304H301Z"  />
<glyph unicode="&#x2c;" horiz-adv-x="245" d="M155 58Q155 31 145 4T116 -47T74 -92T21 -127L-18 -86Q9 -73 36 -51T74 -2H65Q43 -2 27 13T11 55Q11 70 17 83T35 107T59 123T88 129Q114 129 134 111T155 58Z"  />
<glyph unicode="-" horiz-adv-x="300" d="M20 197L39 287H279L260 197H20Z"  />
<glyph unicode="." horiz-adv-x="246" d="M75 -11Q49 -11 31 8T12 54Q12 85 34 107T88 129Q115 129 133 110T152 65Q152 33 130 11T75 -11Z"  />
<glyph unicode="/" horiz-adv-x="315" d="M-60 -20L333 687H415L21 -20H-60Z"  />
<glyph unicode="0" horiz-adv-x="617" d="M282 -12Q228 -12 185 6T112 58T66 141T50 253Q50 332 73 408T139 544T241 640T375 677Q483 677 544 608T605 413Q605 335 582 259T517 122T415 25T282 -12ZM292 92Q338 92 374 123T435 203T473 308T486 419Q486 452 479 480T458 529T420 561T363 573Q317 573 281 542T219 463T181 358T168 247Q168 214 175 186T197 136T235 104T292 92Z"  />
<glyph unicode="1" horiz-adv-x="380" d="M138 0L252 516L118 402L66 473L300 667H402L255 0H138Z"  />
<glyph unicode="2" horiz-adv-x="595" d="M-4 0L20 111Q123 171 205 222T345 318T432 403T463 484Q463 527 427 550T333 574Q277 574 236 556T164 512L113 596Q155 634 215 655T341 677Q389 677 433 666T511 631T565 573T585 492Q585 439 557 390T477 292T357 196T206 103H502L479 0H-4Z"  />
<glyph unicode="3" horiz-adv-x="574" d="M268 -12Q223 -12 181 -3T102 25T37 68T-9 127L72 196Q86 171 108 152T156 119T210 99T267 92Q333 92 367 124T402 205Q402 241 371 265T269 289Q248 289 226 289T196 287L220 393Q224 393 235 393T260 392T288 392T312 392Q341 392 367 397T412 414T443 444T455 487Q455 525 418 549T314 574Q271 574 229 560T149 515L105 594Q146 632 203 654T325 677Q380 677 426 666T505 633T556 579T575 506Q575 470 559 441T517 390T459 355T394 338Q445 326 481 291T518 194Q518 150 499 113T447 47T367 4T268 -12Z"  />
<glyph unicode="4" horiz-adv-x="580" d="M292 0L325 151H7L31 255L389 667H556L465 254H554L531 151H442L409 0H292ZM416 562L145 254H348L416 562Z"  />
<glyph unicode="5" horiz-adv-x="600" d="M289 -12Q195 -12 130 22T26 119L110 191Q137 143 183 118T292 92Q323 92 349 102T395 130T424 172T435 223Q435 274 397 301T299 328Q259 328 229 318T169 285L94 317L170 667H607L585 564H265L224 380Q249 400 282 412T360 424Q400 424 436 412T499 376T541 317T557 236Q557 186 538 141T483 62T399 8T289 -12Z"  />
<glyph unicode="6" horiz-adv-x="601" d="M293 -12Q175 -12 111 54T46 241Q46 317 68 395T133 535T241 637T392 677Q464 677 517 652T605 583L531 501Q509 536 471 554T384 573Q342 573 309 556T251 510T208 445T180 373Q178 366 176 360T173 349Q186 363 206 377T249 402T299 419T354 426Q398 426 436 414T502 378T546 321T562 245Q562 193 541 147T484 65T398 9T293 -12ZM294 92Q325 92 352 103T398 133T429 177T440 230Q440 277 401 304T303 331Q261 331 226 314T161 267Q160 261 160 248T160 227Q160 166 196 129T294 92Z"  />
<glyph unicode="7" horiz-adv-x="532" d="M63 0L438 564H98L120 667H601L583 586L198 0H63Z"  />
<glyph unicode="8" horiz-adv-x="596" d="M280 -12Q229 -12 182 -2T100 31T43 85T22 163Q22 232 72 283T214 356Q193 365 174 378T139 409T115 447T106 493Q106 541 128 576T187 633T268 666T358 677Q404 677 448 667T526 635T582 583T604 509Q604 474 591 445T554 394T497 356T424 333Q447 322 468 307T505 272T531 229T541 179Q541 135 520 100T462 40T379 2T280 -12ZM330 390Q396 395 437 420T478 488Q478 506 468 522T441 549T401 566T350 573Q325 573 302 567T262 548T234 519T223 480Q223 463 233 449T259 423T294 403T330 390ZM284 92Q310 92 335 99T380 118T412 149T424 191Q424 211 413 227T385 257T348 279T308 293Q274 291 245 283T193 260T159 227T146 185Q146 162 156 145T185 116T229 98T284 92Z"  />
<glyph unicode="9" horiz-adv-x="601" d="M346 678Q464 678 528 612T593 425Q593 349 571 272T506 131T398 29T248 -11Q176 -11 123 14T34 84L108 165Q131 130 169 112T255 93Q297 93 330 111T388 157T431 222T459 294Q462 301 463 307T466 318Q453 304 434 290T391 265T340 248T285 241Q241 241 203 253T137 289T94 345T78 421Q78 473 99 520T156 602T241 657T346 678ZM345 574Q314 574 288 563T242 533T211 489T200 436Q200 389 238 363T337 336Q378 336 413 353T478 400Q479 406 479 419T480 440Q480 501 444 537T345 574Z"  />
<glyph unicode=":" horiz-adv-x="237" d="M75 -11Q49 -11 31 8T12 54Q12 85 34 107T88 129Q115 129 133 110T152 65Q152 33 130 11T75 -11ZM155 351Q128 351 110 370T91 415Q91 447 113 469T168 491Q194 491 212 472T231 426Q231 395 209 373T155 351Z"  />
<glyph unicode=";" horiz-adv-x="245" d="M155 58Q155 31 145 4T116 -47T74 -92T21 -127L-18 -86Q9 -73 36 -51T74 -2H65Q43 -2 27 13T11 55Q11 70 17 83T35 107T59 123T88 129Q114 129 134 111T155 58ZM155 351Q128 351 110 370T91 415Q91 447 113 469T168 491Q194 491 212 472T231 426Q231 395 209 373T155 351Z"  />
<glyph unicode="&lt;" horiz-adv-x="502" d="M40 297L57 373L547 580L528 496L128 331L455 167L438 90L40 297Z"  />
<glyph unicode="=" horiz-adv-x="502" d="M62 396L77 463H521L506 396H62ZM20 205L35 273H479L464 205H20Z"  />
<glyph unicode="&gt;" horiz-adv-x="502" d="M-6 90L13 174L415 338L86 503L103 580L501 373L484 297L-6 90Z"  />
<glyph unicode="?" horiz-adv-x="459" d="M178 196Q159 227 159 267Q159 303 174 328T214 371T265 404T316 432T355 464T371 507Q371 537 346 555T272 574Q235 574 201 560T137 519L87 599Q134 641 184 659T289 677Q332 677 370 667T436 638T480 592T496 530Q496 486 479 456T435 405T378 368T321 337T278 303T260 259Q260 252 262 243T273 226L178 196ZM178 -11Q151 -11 133 8T114 54Q114 85 136 107T191 129Q217 129 235 110T254 65Q254 33 232 11T178 -11Z"  />
<glyph unicode="@" horiz-adv-x="783" d="M372 -70Q304 -70 246 -46T146 20T79 120T55 244Q55 325 88 396T175 521T302 606T452 638Q524 638 582 614T681 547T744 448T767 327Q767 266 750 221T706 145T646 100T580 85Q536 85 513 108T486 162L485 169Q459 131 419 108T335 85Q299 85 271 97T222 132T191 184T180 251Q180 302 199 347T251 426T324 479T410 499Q458 499 489 478T537 427L548 484H642L588 228Q587 224 587 217T586 206Q586 182 598 170T627 158Q642 158 659 167T692 196T717 248T728 328Q728 388 708 438T652 524T564 581T449 601Q377 601 313 572T199 494T122 381T93 246Q93 187 114 136T173 47T263 -12T377 -34Q429 -34 474 -19T560 22L580 -7Q533 -37 481 -53T372 -70ZM369 161Q413 161 445 185T496 237L522 363Q518 373 511 383T493 403T466 417T432 423Q399 423 371 409T322 372T290 319T278 258Q278 215 302 188T369 161Z"  />
<glyph unicode="A" horiz-adv-x="673" d="M491 0L470 129H164L87 0H-53L357 667H503L618 0H491ZM410 550L220 232H460L410 550Z"  />
<glyph unicode="B" horiz-adv-x="649" d="M17 0L164 667H468Q509 667 541 655T597 621T632 572T645 510Q645 476 633 446T599 392T550 353T492 334Q514 328 532 315T562 283T581 243T588 199Q588 163 575 128T534 64T463 18T358 0H17ZM412 392Q442 392 462 400T495 423T513 455T519 491Q519 523 496 543T437 564H259L221 392H412ZM351 103Q380 103 402 112T439 135T462 169T470 209Q470 244 447 266T383 289H198L157 103H351Z"  />
<glyph unicode="C" horiz-adv-x="682" d="M371 -12Q303 -12 245 9T143 68T76 161T51 284Q51 373 82 446T167 570T289 650T434 678Q490 678 535 665T616 628T678 572T720 503L608 463Q584 520 536 547T428 574Q378 574 332 554T251 496T195 406T174 291Q174 248 188 212T228 149T292 107T377 92Q422 92 466 112T544 169L633 106Q605 73 573 51T506 14T437 -6T371 -12Z"  />
<glyph unicode="D" horiz-adv-x="710" d="M17 0L164 667H407Q463 667 514 646T605 588T667 498T691 382Q691 315 667 247T592 124T459 35T264 0H17ZM157 103H285Q351 103 404 125T493 184T550 270T570 374Q570 415 556 449T518 509T460 549T386 564H259L157 103Z"  />
<glyph unicode="E" horiz-adv-x="577" d="M17 0L164 667H621L599 564H259L221 392H554L531 289H198L157 103H497L474 0H17Z"  />
<glyph unicode="F" horiz-adv-x="563" d="M17 0L164 667H621L599 564H259L221 392H554L531 289H198L134 0H17Z"  />
<glyph unicode="G" horiz-adv-x="717" d="M356 -12Q291 -12 236 9T139 70T75 163T51 284Q51 373 83 446T169 570T295 650T449 678Q498 678 539 666T614 631T673 581T713 521L607 475Q585 521 538 547T433 574Q382 574 336 553T253 495T196 405T174 291Q174 247 188 210T228 147T290 107T370 92Q412 92 447 105T509 140T557 192T589 256H352L375 359H734Q703 178 606 83T356 -12Z"  />
<glyph unicode="H" horiz-adv-x="723" d="M481 0L545 292H198L134 0H17L164 667H281L221 395H568L628 667H745L598 0H481Z"  />
<glyph unicode="I" horiz-adv-x="259" d="M17 0L164 667H281L134 0H17Z"  />
<glyph unicode="J" horiz-adv-x="482" d="M162 -12Q106 -12 55 7T-26 67L40 154Q57 126 87 109T155 92Q209 92 242 125T287 213L387 667H504L403 212Q377 97 318 43T162 -12Z"  />
<glyph unicode="K" horiz-adv-x="621" d="M423 0L259 286L181 213L134 0H17L164 667H281L213 359L536 667H687L347 353L561 0H423Z"  />
<glyph unicode="L" horiz-adv-x="506" d="M9 0L156 667H273L149 103H443L420 0H9Z"  />
<glyph unicode="M" horiz-adv-x="835" d="M593 0L707 515L389 0H339L248 515L134 0H17L164 667H325L405 209L688 667H857L710 0H593Z"  />
<glyph unicode="N" horiz-adv-x="720" d="M482 0L241 483L134 0H17L164 667H284L521 199L625 667H742L595 0H482Z"  />
<glyph unicode="O" horiz-adv-x="765" d="M371 -12Q304 -12 246 8T144 67T76 160T51 284Q51 367 80 439T162 564T283 647T434 678Q501 678 559 658T660 600T728 507T753 383Q753 300 724 228T643 103T522 19T371 -12ZM377 92Q429 92 475 113T555 173T610 263T630 375Q630 422 615 459T572 521T507 560T426 574Q374 574 328 553T248 493T194 403T174 291Q174 244 189 207T232 145T297 106T377 92Z"  />
<glyph unicode="P" horiz-adv-x="609" d="M17 0L164 667H450Q489 667 522 653T579 614T617 557T631 488Q631 450 618 408T573 331T490 273T364 250H189L134 0H17ZM371 353Q403 353 428 362T472 389T499 428T509 476Q509 514 483 539T414 564H259L212 353H371Z"  />
<glyph unicode="Q" horiz-adv-x="765" d="M371 -12Q304 -12 246 8T144 67T76 160T51 284Q51 367 80 439T162 564T283 647T434 678Q501 678 559 658T660 600T728 507T753 383Q753 284 712 202T602 66L639 11L546 -37L511 15Q479 2 444 -5T371 -12ZM377 92Q416 92 452 104L385 206L479 253L541 158Q582 196 606 252T630 375Q630 422 615 459T572 521T507 560T426 574Q374 574 328 553T248 493T194 403T174 291Q174 244 189 207T232 145T297 106T377 92Z"  />
<glyph unicode="R" horiz-adv-x="629" d="M404 0L311 249H189L134 0H17L164 667H432Q471 667 506 655T570 619T614 562T631 485Q631 440 616 401T574 331T510 282T429 257L534 0H404ZM372 352Q438 352 473 387T509 474Q509 494 501 510T480 539T449 557T412 564H259L212 352H371H372Z"  />
<glyph unicode="S" horiz-adv-x="594" d="M295 -12Q248 -12 204 -3T123 22T56 61T7 111L81 196Q116 148 175 120T304 92Q336 92 359 101T396 124T418 155T425 188Q425 215 401 233T340 267T261 298T182 336T122 390T97 470Q97 510 114 547T165 614T244 660T348 678Q426 678 493 650T603 571L528 487Q492 532 438 553T331 575Q307 575 287 568T253 550T230 523T221 490Q221 465 245 448T306 415T385 384T464 346T524 291T549 210Q549 166 532 126T483 56T403 7T295 -12Z"  />
<glyph unicode="T" horiz-adv-x="577" d="M176 0L301 564H99L121 667H642L620 564H418L293 0H176Z"  />
<glyph unicode="U" horiz-adv-x="720" d="M348 -12Q280 -12 229 4T142 51T88 123T70 216Q70 228 71 242T75 264L164 667H283L194 266Q193 261 192 251T190 230Q190 201 200 176T231 132T280 102T348 91Q431 91 474 138T535 266L623 667H742L653 264Q639 203 617 152T558 65T470 8T348 -12Z"  />
<glyph unicode="V" horiz-adv-x="673" d="M210 0L95 667H222L305 128L626 667H765L356 0H210Z"  />
<glyph unicode="W" horiz-adv-x="903" d="M527 0L506 493L268 0H143L100 667H227L244 154L495 667H588L613 154L856 667H990L652 0H527Z"  />
<glyph unicode="X" horiz-adv-x="661" d="M471 0L336 257L97 0H-51L278 350L112 667H244L368 427L587 667H736L427 336L604 0H471Z"  />
<glyph unicode="Y" horiz-adv-x="637" d="M207 0L268 277L95 667H222L342 382L588 667H729L385 277L324 0H207Z"  />
<glyph unicode="Z" horiz-adv-x="589" d="M-10 0L11 95L449 564H115L138 667H631L610 573L172 103H513L491 0H-10Z"  />
<glyph unicode="[" horiz-adv-x="265" d="M-53 -190L140 678H343L327 606H202L41 -118H167L150 -190H-53Z"  />
<glyph unicode="\" horiz-adv-x="315" d="M98 687H176L256 -20H178L98 687Z"  />
<glyph unicode="]" horiz-adv-x="265" d="M-79 -190L-63 -118H63L223 606H98L114 678H317L124 -190H-79Z"  />
<glyph unicode="^" horiz-adv-x="437" d="M361 333L300 594L123 333H38L274 667H351L437 333H361Z"  />
<glyph unicode="_" horiz-adv-x="564" d="M-82 -112L-65 -40H504L488 -112H-82Z"  />
<glyph unicode="`" horiz-adv-x="240" d="M234 556L101 700H201L309 556H234Z"  />
<glyph unicode="a" horiz-adv-x="537" d="M317 0L328 51Q299 22 264 5T181 -12Q150 -12 121 -4T70 22T35 66T21 128Q21 170 35 203T74 259T131 294T200 306Q255 306 296 289T369 238L384 304Q385 307 385 315T386 329Q386 364 354 386T267 408Q227 408 193 395T130 358L102 433Q185 495 288 495Q329 495 366 487T431 461T477 416T494 349Q494 340 492 325T488 300L422 0H317ZM227 60Q263 60 291 73T340 108L357 180Q340 206 308 220T235 234Q187 234 158 207T129 137Q129 99 155 80T227 60Z"  />
<glyph unicode="b" horiz-adv-x="581" d="M294 -12Q242 -12 200 9T134 69L119 0H14L161 667H266L212 419Q242 456 279 475T363 495Q446 495 497 444T548 296Q548 239 531 184T482 86T402 15T294 -12ZM278 81Q314 81 343 97T394 140T426 202T438 275Q438 334 405 368T319 402Q281 402 248 383T193 334L151 147Q168 119 200 100T278 81Z"  />
<glyph unicode="c" horiz-adv-x="498" d="M264 -12Q212 -12 170 3T97 47T50 116T33 206Q33 266 54 318T113 410T201 472T311 495Q382 495 428 470T500 402L421 342Q404 371 375 386T311 402Q272 402 241 387T187 345T153 284T141 211Q141 179 151 155T180 115T222 90T274 81Q309 81 337 96T385 134L442 64Q413 34 370 11T264 -12Z"  />
<glyph unicode="d" horiz-adv-x="581" d="M286 495Q339 495 380 474T446 414L502 667H607L459 0H354L369 64Q338 27 301 8T217 -12Q135 -12 84 40T32 188Q32 244 49 299T99 397T179 468T286 495ZM302 402Q266 402 237 386T186 343T154 281T142 209Q142 150 175 116T261 81Q300 81 333 101T388 150L429 337Q412 365 380 383T302 402Z"  />
<glyph unicode="e" horiz-adv-x="557" d="M277 -12Q221 -12 176 3T99 46T50 114T33 204Q33 263 54 316T112 408T199 471T309 495Q356 495 395 480T463 437T507 370T523 282Q523 262 520 240T513 207H140Q139 205 139 200T139 191Q139 170 148 149T175 112T220 85T285 74Q319 74 354 84T414 115L448 41Q413 17 368 3T277 -12ZM428 282Q428 284 428 288T429 295Q429 343 397 376T302 409Q273 409 248 399T202 371T169 330T151 282H426H428Z"  />
<glyph unicode="f" horiz-adv-x="309" d="M40 0L126 392H46L67 483H146L152 510Q169 590 212 633T324 677Q351 677 375 672T422 652L384 577Q374 585 362 588T335 591Q303 591 285 572T257 510L251 483H350L329 392H231L145 0H40Z"  />
<glyph unicode="g" horiz-adv-x="581" d="M212 -196Q142 -196 85 -178T-14 -113L49 -43Q73 -77 116 -93T210 -110Q234 -110 257 -104T299 -82T334 -40T358 25L370 78Q342 43 303 22T215 1Q178 1 145 12T87 48T47 109T32 198Q32 254 49 307T99 402T177 469T283 495Q330 495 374 473T445 414L461 483H566L464 25Q449 -40 423 -82T363 -150T290 -186T212 -196ZM262 94Q298 94 331 113T388 159L427 334Q409 366 374 384T295 402Q260 402 232 387T184 347T153 288T142 217Q142 160 175 127T262 94Z"  />
<glyph unicode="h" horiz-adv-x="568" d="M341 0L408 304Q410 310 411 319T412 334Q412 371 386 386T322 402Q285 402 252 382T194 337L120 0H15L162 667H267L211 418Q226 432 244 446T282 471T326 488T376 495Q444 495 484 463T525 374Q525 366 523 354T519 333L446 0H341Z"  />
<glyph unicode="i" horiz-adv-x="241" d="M193 542Q167 542 151 558T134 598Q134 616 141 629T158 652T182 667T208 672Q234 672 250 656T267 616Q267 598 260 585T243 562T219 547T193 542ZM14 0L121 483H226L119 0H14Z"  />
<glyph unicode="j" horiz-adv-x="241" d="M-60 -196Q-145 -196 -186 -155L-140 -80Q-116 -110 -75 -110Q-45 -110 -24 -91T8 -28L121 483H226L113 -28Q96 -105 56 -150T-60 -196ZM193 542Q167 542 151 558T134 598Q134 616 141 629T158 652T182 667T208 672Q234 672 250 656T267 616Q267 598 260 585T243 562T219 547T193 542Z"  />
<glyph unicode="k" horiz-adv-x="527" d="M340 0L234 203L148 130L119 0H14L161 667H266L175 257L435 483H569L320 264L466 0H340Z"  />
<glyph unicode="l" horiz-adv-x="286" d="M166 -12Q105 -12 71 12T36 82Q36 101 40 117L161 667H266L150 143Q149 137 149 132T148 121Q148 102 161 92T196 81Q207 81 219 85T236 94L242 10Q231 1 212 -5T166 -12Z"  />
<glyph unicode="m" horiz-adv-x="834" d="M607 0L675 308Q676 312 677 319T678 334Q678 367 656 384T603 402Q571 402 541 383T490 337L415 0H310L378 308Q382 323 382 337Q382 366 363 384T306 402Q274 402 245 382T194 337L119 0H14L121 483H226L211 418Q221 429 236 442T269 467T311 487T360 495Q394 495 419 484T460 458T484 427T492 401V399Q507 417 524 434T562 464T606 486T657 495Q683 495 707 487T750 464T780 427T791 374Q791 365 789 353T785 333L712 0H607Z"  />
<glyph unicode="n" horiz-adv-x="568" d="M341 0L408 303Q410 311 411 318T412 334Q412 371 386 386T322 402Q285 402 252 382T194 337L119 0H14L121 483H226L211 418Q226 432 244 446T282 471T326 488T376 495Q444 495 484 463T525 374Q525 367 523 354T519 333L446 0H341Z"  />
<glyph unicode="o" horiz-adv-x="574" d="M264 -12Q209 -12 166 4T94 49T49 118T33 206Q33 263 53 315T110 407T197 471T308 495Q363 495 406 479T478 434T523 366T539 278Q539 221 519 169T462 77T375 12T264 -12ZM268 81Q304 81 333 97T384 140T418 201T430 273Q430 333 397 367T304 402Q268 402 239 386T188 343T154 282T142 210Q142 150 175 116T268 81Z"  />
<glyph unicode="p" horiz-adv-x="579" d="M294 -12Q242 -12 200 9T134 69L78 -184H-27L121 483H226L212 419Q242 456 279 475T363 495Q446 495 497 444T548 296Q548 239 531 184T482 86T402 15T294 -12ZM278 81Q314 81 343 97T394 140T426 202T438 275Q438 334 405 368T319 402Q281 402 248 383T193 334L151 147Q168 119 200 100T278 81Z"  />
<glyph unicode="q" horiz-adv-x="579" d="M286 495Q339 495 380 474T446 414L461 483H566L418 -184H313L369 64Q338 27 301 8T217 -12Q135 -12 84 40T32 188Q32 244 49 299T99 397T179 468T286 495ZM302 402Q266 402 237 386T186 343T154 281T142 209Q142 150 175 116T261 81Q300 81 333 101T388 150L429 337Q412 365 380 383T302 402Z"  />
<glyph unicode="r" horiz-adv-x="347" d="M14 0L121 483H226L211 416Q244 453 285 474T386 495L362 389Q357 391 346 392T320 394Q282 394 248 374T191 327L119 0H14Z"  />
<glyph unicode="s" horiz-adv-x="472" d="M214 -12Q148 -12 91 10T-4 75L58 147Q68 134 85 121T124 97T171 79T223 72Q265 72 288 91T311 137Q311 156 293 168T246 191T186 213T126 241T80 280T61 338Q61 369 73 397T110 447T171 482T253 495Q315 495 367 473T450 417L393 347Q385 359 370 371T336 392T295 406T250 412Q210 412 188 396T166 355Q166 337 184 326T230 304T290 282T350 254T396 213T415 153Q415 120 402 90T363 38T300 2T214 -12Z"  />
<glyph unicode="t" horiz-adv-x="319" d="M188 -12Q129 -12 94 11T58 86Q58 90 58 99T61 117L122 392H42L63 483H143L172 615H277L248 483H346L325 392H227L172 143Q171 138 171 134T170 125Q170 105 182 93T218 81Q229 81 240 85T258 94L264 10Q234 -12 188 -12Z"  />
<glyph unicode="u" horiz-adv-x="567" d="M226 483L159 181Q157 173 156 166T154 150Q154 113 180 97T244 81Q281 81 315 101T373 147L447 483H552L445 0H340L355 66Q340 52 322 38T284 13T240 -5T190 -12Q122 -12 82 20T42 110Q42 117 43 129T47 150L121 483H226Z"  />
<glyph unicode="v" horiz-adv-x="503" d="M141 0L51 483H160L220 121L442 483H558L254 0H141Z"  />
<glyph unicode="w" horiz-adv-x="755" d="M436 0L401 354L211 0H101L58 483H164L188 132L381 483H473L510 132L690 483H803L546 0H436Z"  />
<glyph unicode="x" horiz-adv-x="497" d="M324 0L238 178L73 0H-49L183 248L69 483H183L261 320L412 483H534L314 248L438 0H324Z"  />
<glyph unicode="y" horiz-adv-x="567" d="M199 -196Q123 -196 68 -177T-28 -113L36 -43Q48 -60 65 -73T104 -94T149 -106T197 -110Q262 -110 296 -75T346 25L358 80Q326 51 287 28T194 4Q163 4 136 11T89 33T58 71T46 125Q46 132 46 141T51 166L121 483H226L162 196Q160 187 159 179T158 165Q158 145 165 132T185 111T214 100T248 97Q286 97 319 117T376 162L447 483H552L450 25Q427 -78 365 -137T199 -196Z"  />
<glyph unicode="z" horiz-adv-x="476" d="M-8 0L10 80L313 392H79L100 483H479L462 407L154 92H395L376 0H-8Z"  />
<glyph unicode="{" horiz-adv-x="277" d="M116 -190Q91 -190 68 -182T28 -157T0 -120T-11 -71Q-11 -56 -8 -42L34 145Q35 150 35 154T36 163Q36 185 26 199T-3 213L11 275Q40 275 56 295T78 343L120 529Q137 606 183 642T295 678H356L340 606H279Q214 606 197 530L152 325Q144 293 129 269T87 236Q103 228 109 214T116 181Q116 173 115 165T112 147L70 -41Q69 -46 69 -51T68 -61Q68 -87 84 -102T125 -118H179L163 -190H116Z"  />
<glyph unicode="|" horiz-adv-x="214" d="M91 -20V687H163V-20H91Z"  />
<glyph unicode="}" horiz-adv-x="277" d="M160 678Q185 678 208 670T248 645T276 608T287 559Q287 552 286 544T283 530L242 343Q241 338 241 334T240 326Q240 304 250 290T279 275L265 213Q236 213 220 193T198 145L156 -41Q139 -118 93 -154T-19 -190H-80L-64 -118H-3Q62 -118 79 -42L124 163Q132 195 147 219T189 252Q173 260 167 275T160 307Q160 315 161 323T164 341L206 529Q207 534 207 539T208 549Q208 575 192 590T151 606H97L113 678H160Z"  />
<glyph unicode="~" horiz-adv-x="507" d="M572 659Q562 614 547 571T510 493T458 438T388 417Q352 417 333 430T305 464T292 508T284 552T272 585T246 599Q229 599 214 585T184 546T158 488T138 416L66 425Q76 471 91 514T129 591T181 645T251 666Q286 666 305 653T334 619T347 575T355 531T366 497T392 483Q408 483 424 498T454 538T481 596T501 667L572 659Z"  />
<glyph unicode="&#xA0;" horiz-adv-x="258" />
<glyph unicode="&#xA1;" horiz-adv-x="244" d="M175 279L92 -184H-37L84 279H175ZM168 494Q194 494 212 475T231 430Q231 398 209 376T155 354Q128 354 110 373T91 419Q91 450 113 472T168 494Z"  />
<glyph unicode="&#xA2;" horiz-adv-x="498" d="M190 -3Q118 16 76 70T33 206Q33 264 53 316T110 407T195 469T301 495L317 565H395L378 488Q421 477 451 455T500 402L421 342Q398 380 357 394L287 81Q317 84 342 98T385 134L442 64Q413 34 370 12T266 -12L247 -100H169L190 -3ZM141 211Q141 166 160 137T212 93L280 399Q248 393 222 376T178 333T151 276T141 211Z"  />
<glyph unicode="&#xA3;" horiz-adv-x="536" d="M42 338H136Q122 366 108 394T94 461Q94 505 114 544T168 612T249 659T348 677Q387 677 423 669T489 644T539 604T570 550L465 505Q457 540 426 560T353 581Q326 581 302 572T260 545T231 503T220 449Q220 431 224 417T234 389T246 364T259 338H403L388 269H271Q269 245 260 222T236 180T204 145T171 120Q194 128 217 128Q240 128 258 122T294 110T328 97T367 91Q396 91 416 102T453 129L479 36Q458 15 429 1T359 -13Q326 -13 298 -6T245 9T195 25T144 32Q118 32 90 22T31 -7L9 76Q41 89 68 108T116 151T149 200T161 252Q161 257 161 260T160 269H27L42 338Z"  />
<glyph unicode="&#xA4;" horiz-adv-x="506" d="M253 222Q310 222 341 262T372 365Q372 395 364 421T341 467T304 498T253 509Q224 509 202 498T165 468T141 422T133 365Q133 334 141 308T164 263T202 233T253 222ZM19 168L88 239Q50 294 50 365Q50 436 88 489L19 560L64 603L131 534Q155 552 185 563T253 574Q289 574 320 563T375 534L442 603L487 560L418 489Q455 435 455 365Q455 330 445 298T417 240L487 168L442 125L374 194Q325 157 253 157Q181 157 132 194L64 125L19 168Z"  />
<glyph unicode="&#xA5;" horiz-adv-x="637" d="M209 0L235 118H-6L10 186H250L270 277H30L45 345H240L97 667H224L344 382L590 667H731L447 345H637L622 277H387L367 186H602L587 118H352L326 0H209Z"  />
<glyph unicode="&#xA6;" horiz-adv-x="214" d="M91 -20V296H163V-20H91ZM91 371V687H163V371H91Z"  />
<glyph unicode="&#xA7;" horiz-adv-x="477" d="M454 328Q454 280 423 241T334 183Q370 163 384 138T399 82Q399 49 385 19T345 -33T283 -68T202 -81Q128 -81 70 -60T-27 2L34 65Q60 32 105 13T201 -7Q243 -7 268 15T294 66Q294 88 276 102T231 128T171 150T112 177T66 217T48 278Q48 327 82 365T183 418Q147 434 125 460T103 525Q103 556 116 584T155 632T215 665T293 677Q365 677 416 658T499 603L442 546Q418 575 378 589T298 603Q255 603 231 584T206 537Q206 515 224 502T270 477T330 456T389 429T435 389T454 328ZM345 305Q345 337 322 354T266 382Q207 374 181 351T154 298Q154 266 182 249T256 217Q305 230 325 255T345 305Z"  />
<glyph unicode="&#xA8;" horiz-adv-x="285" d="M387 615Q387 602 382 590T367 569T346 555T321 550Q298 550 284 564T269 602Q269 615 274 626T289 647T310 661T335 667Q357 667 372 652T387 615ZM178 615Q178 602 173 590T158 569T137 555T112 550Q89 550 75 564T60 602Q60 615 65 626T80 647T101 661T126 667Q148 667 163 652T178 615Z"  />
<glyph unicode="&#xA9;" horiz-adv-x="778" d="M754 334Q754 263 727 200T653 90T543 16T408 -11Q337 -11 274 16T165 90T91 200T64 334Q64 406 91 468T164 578T274 652T408 679Q480 679 543 652T653 578T727 469T754 334ZM720 334Q720 398 696 455T629 554T529 620T408 645Q344 645 288 621T189 554T123 455T98 334Q98 270 122 214T189 115T287 48T408 23Q472 23 529 47T628 114T695 213T720 334ZM529 176Q502 153 467 138T392 122Q347 122 312 136T252 175T214 234T200 307Q200 358 219 402T272 478T347 529T434 547Q486 547 526 527T592 466L558 442Q540 475 508 492T433 510Q398 510 364 495T303 453T259 389T242 308Q242 278 252 251T282 204T329 171T392 159Q425 159 455 173T506 207L529 176Z"  />
<glyph unicode="&#xAA;" horiz-adv-x="412" d="M269 587Q246 587 227 577T193 549T170 509T162 460Q162 420 183 400T238 380Q263 380 283 391T319 420L348 551Q337 568 315 577T269 587ZM445 640L376 326H298L307 368Q285 342 261 330T207 318Q182 318 160 326T120 351T92 393T82 452Q82 492 95 527T131 590T184 632T251 648Q286 648 314 636T359 599L368 640H445Z"  />
<glyph unicode="&#xAB;" horiz-adv-x="490" d="M149 63L29 243L229 420H333L129 238L245 63H149ZM319 63L199 243L399 420H503L299 238L415 63H319Z"  />
<glyph unicode="&#xAC;" horiz-adv-x="511" d="M464 205H394L436 396H62L77 463H521L464 205Z"  />
<glyph unicode="&#xAD;" horiz-adv-x="300" d="M20 197L39 287H279L260 197H20Z"  />
<glyph unicode="&#xAE;" horiz-adv-x="494" d="M508 465Q508 421 492 383T446 315T378 270T295 253Q251 253 213 269T146 315T101 382T84 465Q84 509 100 548T146 615T213 660T296 677Q340 677 379 661T446 616T491 548T508 465ZM478 465Q478 503 464 536T425 594T367 633T295 647Q257 647 225 633T168 595T129 537T115 465Q115 428 129 395T167 338T224 299T295 284Q333 284 366 298T424 337T463 395T478 465ZM329 343L287 439H242L221 343H188L241 586H334Q364 586 384 569T404 522Q404 504 397 489T379 463T353 446T324 440L368 343H329ZM369 519Q369 536 358 546T327 557H268L249 469H315Q339 469 354 484T369 519Z"  />
<glyph unicode="&#xAF;" horiz-adv-x="363" d="M77 591L91 653H453L439 591H77Z"  />
<glyph unicode="&#xB0;" horiz-adv-x="302" d="M348 547Q348 520 338 497T310 456T269 428T218 418Q191 418 168 428T127 455T99 496T89 547Q89 574 99 597T126 639T167 667T218 677Q245 677 268 667T309 639T337 598T348 547ZM288 547Q288 576 268 596T218 617Q189 617 169 597T149 547Q149 518 168 499T217 479Q246 479 267 498T288 547Z"  />
<glyph unicode="&#xB1;" horiz-adv-x="502" d="M306 325L260 118H186L232 325H47L62 393H247L291 593H365L321 393H506L491 325H306ZM-25 0L-11 68H434L419 0H-25Z"  />
<glyph unicode="&#xB2;" horiz-adv-x="394" d="M87 421L101 485Q172 527 223 558T306 615T354 663T370 708Q370 735 348 748T295 762Q261 762 232 750T183 718L149 771Q178 798 217 812T298 827Q329 827 357 820T406 799T440 763T453 714Q453 684 436 656T388 599T315 544T220 486H406L392 421H87Z"  />
<glyph unicode="&#xB3;" horiz-adv-x="394" d="M419 534Q419 512 409 491T380 452T332 425T266 414Q208 414 163 433T95 487L146 536Q166 507 197 493T263 479Q301 479 320 498T339 544Q339 567 314 580T245 594Q237 594 228 594T213 593L227 657Q237 656 257 656T290 656Q328 656 349 670T371 711Q371 736 345 749T286 762Q226 762 180 723L152 774Q178 797 215 812T293 827Q362 827 407 801T453 723Q453 682 424 654T342 621Q373 613 396 592T419 534Z"  />
<glyph unicode="&#xB4;" horiz-adv-x="240" d="M144 556H67L239 700H341L144 556Z"  />
<glyph unicode="&#xB5;" horiz-adv-x="567" d="M-27 -184L121 483H226L155 161Q150 116 171 98T234 80Q274 80 311 100T372 144L447 483H552L445 0H340L354 64Q322 35 273 12T167 -12Q139 -12 117 -6L78 -184H-27Z"  />
<glyph unicode="&#xB6;" horiz-adv-x="449" d="M260 -100L419 612H336L177 -100H122L216 323Q188 323 163 334T120 367T90 416T79 479Q79 514 93 548T134 608T195 651T273 667H485L315 -100H260Z"  />
<glyph unicode="&#xB7;" horiz-adv-x="246" d="M116 175Q90 175 72 194T53 240Q53 271 75 293T129 315Q156 315 174 296T193 251Q193 219 171 197T116 175Z"  />
<glyph unicode="&#xB8;" horiz-adv-x="214" d="M26 -194Q-12 -194 -42 -183T-89 -154L-58 -111Q-41 -128 -19 -137T27 -146Q53 -146 67 -135T81 -106Q81 -95 73 -88T49 -80Q29 -80 17 -95L-19 -72L30 11H85L46 -53Q60 -42 78 -42Q103 -42 119 -58T136 -103Q136 -145 105 -169T26 -194Z"  />
<glyph unicode="&#xB9;" horiz-adv-x="264" d="M162 421L226 714L147 648L110 698L261 821H331L243 421H162Z"  />
<glyph unicode="&#xBA;" horiz-adv-x="405" d="M241 318Q168 318 126 358T84 463Q84 502 99 536T139 594T198 633T270 648Q343 648 385 608T427 504Q427 465 412 431T372 372T312 333T241 318ZM242 381Q267 381 287 392T320 420T341 460T348 505Q348 541 327 562T269 584Q243 584 224 574T191 546T171 506T164 461Q164 425 185 403T242 381Z"  />
<glyph unicode="&#xBB;" horiz-adv-x="490" d="M173 420L293 240L93 63H-11L193 245L77 420H173ZM343 420L463 240L263 63H159L363 245L247 420H343Z"  />
<glyph unicode="&#xBC;" horiz-adv-x="806" d="M138 0H71L645 667H712L138 0ZM689 92L669 0H589L609 92H412L425 149L645 400H757L703 156H757L743 92H689ZM661 327L507 156H623L661 327ZM128 267L192 560L113 494L76 544L227 667H297L209 267H128Z"  />
<glyph unicode="&#xBD;" horiz-adv-x="841" d="M138 0H71L645 667H712L138 0ZM442 0L456 64Q527 106 578 137T661 194T709 242T725 287Q725 314 703 327T650 341Q616 341 587 329T538 297L504 350Q533 377 572 391T653 406Q684 406 712 399T761 378T795 342T808 293Q808 263 791 235T743 178T670 123T575 65H761L747 0H442ZM128 267L192 560L113 494L76 544L227 667H297L209 267H128Z"  />
<glyph unicode="&#xBE;" horiz-adv-x="903" d="M235 0H168L742 667H809L235 0ZM785 92L765 0H685L705 92H508L521 149L741 400H853L799 156H853L839 92H785ZM757 327L603 156H719L757 327ZM385 380Q385 358 375 337T346 298T298 271T232 260Q174 260 129 279T61 333L112 382Q132 353 163 339T229 325Q267 325 286 344T305 390Q305 413 280 426T211 440Q203 440 194 440T179 439L193 503Q203 502 223 502T256 502Q294 502 315 516T337 557Q337 582 311 595T252 608Q192 608 146 569L118 620Q144 643 181 658T259 673Q328 673 373 647T419 569Q419 528 390 500T308 467Q339 459 362 438T385 380Z"  />
<glyph unicode="&#xBF;" horiz-adv-x="396" d="M279 287Q289 271 294 254T299 216Q299 180 283 155T244 112T193 79T142 51T102 19T86 -24Q86 -55 111 -73T185 -92Q222 -92 256 -78T320 -37L371 -117Q324 -159 274 -177T169 -195Q125 -195 88 -185T22 -156T-23 -110T-39 -48Q-39 -4 -22 26T22 78T79 115T136 146T180 180T198 224Q198 231 195 240T184 257L279 287ZM280 494Q306 494 324 475T343 429Q343 398 321 376T267 354Q240 354 222 373T203 418Q203 450 225 472T280 494Z"  />
<glyph unicode="&#xC0;" horiz-adv-x="673" d="M445 728L312 872H412L520 728H445ZM491 0L470 129H164L87 0H-53L357 667H503L618 0H491ZM410 550L220 232H460L410 550Z"  />
<glyph unicode="&#xC1;" horiz-adv-x="673" d="M445 728H368L540 872H642L445 728ZM491 0L470 129H164L87 0H-53L357 667H503L618 0H491ZM410 550L220 232H460L410 550Z"  />
<glyph unicode="&#xC2;" horiz-adv-x="673" d="M524 728L467 825L372 728H303L428 872H524L588 728H524ZM491 0L470 129H164L87 0H-53L357 667H503L618 0H491ZM410 550L220 232H460L410 550Z"  />
<glyph unicode="&#xC3;" horiz-adv-x="673" d="M515 726Q488 726 473 738T447 765T425 792T396 804Q379 804 366 787T344 732H285Q298 794 325 830T403 866Q430 866 445 854T471 827T494 800T523 788Q540 788 553 805T576 860H634Q621 798 594 762T515 726ZM491 0L470 129H164L87 0H-53L357 667H503L618 0H491ZM410 550L220 232H460L410 550Z"  />
<glyph unicode="&#xC4;" horiz-adv-x="673" d="M620 787Q620 774 615 762T600 741T579 727T554 722Q531 722 517 736T502 774Q502 787 507 798T522 819T543 833T568 839Q590 839 605 824T620 787ZM411 787Q411 774 406 762T391 741T370 727T345 722Q322 722 308 736T293 774Q293 787 298 798T313 819T334 833T359 839Q381 839 396 824T411 787ZM491 0L470 129H164L87 0H-53L357 667H503L618 0H491ZM410 550L220 232H460L410 550Z"  />
<glyph unicode="&#xC5;" horiz-adv-x="673" d="M448 692Q406 692 381 717T355 785Q355 808 364 828T388 864T424 888T467 897Q509 897 534 872T560 804Q560 781 551 761T527 726T492 701T448 692ZM452 743Q475 743 492 759T509 799Q509 820 497 833T463 846Q440 846 423 830T406 790Q406 770 419 757T452 743ZM491 0L470 129H164L87 0H-53L357 667H503L618 0H491ZM410 550L220 232H460L410 550Z"  />
<glyph unicode="&#xC6;" horiz-adv-x="960" d="M401 0L429 129H187L82 0H-56L501 667H1005L983 564H643L605 392H938L915 289H582L541 103H881L858 0H401ZM521 543L265 232H452L521 543Z"  />
<glyph unicode="&#xC7;" horiz-adv-x="682" d="M371 -12Q366 -12 361 -12T351 -11L326 -53Q340 -42 358 -42Q383 -42 399 -58T416 -103Q416 -145 385 -169T306 -194Q268 -194 238 -183T191 -154L222 -111Q239 -128 261 -137T307 -146Q333 -146 347 -135T361 -106Q361 -95 353 -88T329 -80Q309 -80 297 -95L261 -72L300 -5Q245 5 200 29T121 91T70 176T51 284Q51 373 82 446T167 570T289 650T434 678Q490 678 535 665T616 628T678 572T720 503L608 463Q584 520 536 547T428 574Q378 574 332 554T251 496T195 406T174 291Q174 248 188 212T228 149T292 107T377 92Q422 92 466 112T544 169L633 106Q605 73 573 51T506 14T437 -6T371 -12Z"  />
<glyph unicode="&#xC8;" horiz-adv-x="577" d="M407 728L274 872H374L482 728H407ZM17 0L164 667H621L599 564H259L221 392H554L531 289H198L157 103H497L474 0H17Z"  />
<glyph unicode="&#xC9;" horiz-adv-x="577" d="M407 728H330L502 872H604L407 728ZM17 0L164 667H621L599 564H259L221 392H554L531 289H198L157 103H497L474 0H17Z"  />
<glyph unicode="&#xCA;" horiz-adv-x="577" d="M485 728L428 825L333 728H264L389 872H485L549 728H485ZM17 0L164 667H621L599 564H259L221 392H554L531 289H198L157 103H497L474 0H17Z"  />
<glyph unicode="&#xCB;" horiz-adv-x="577" d="M583 787Q583 774 578 762T563 741T542 727T517 722Q494 722 480 736T465 774Q465 787 470 798T485 819T506 833T531 839Q553 839 568 824T583 787ZM374 787Q374 774 369 762T354 741T333 727T308 722Q285 722 271 736T256 774Q256 787 261 798T276 819T297 833T322 839Q344 839 359 824T374 787ZM17 0L164 667H621L599 564H259L221 392H554L531 289H198L157 103H497L474 0H17Z"  />
<glyph unicode="&#xCC;" horiz-adv-x="259" d="M236 728L103 872H203L311 728H236ZM17 0L164 667H281L134 0H17Z"  />
<glyph unicode="&#xCD;" horiz-adv-x="259" d="M239 728H162L334 872H436L239 728ZM17 0L164 667H281L134 0H17Z"  />
<glyph unicode="&#xCE;" horiz-adv-x="259" d="M315 728L258 825L163 728H94L219 872H315L379 728H315ZM17 0L164 667H281L134 0H17Z"  />
<glyph unicode="&#xCF;" horiz-adv-x="259" d="M412 786Q412 773 407 761T392 740T371 726T346 721Q323 721 309 735T294 773Q294 786 299 797T314 818T335 832T360 838Q382 838 397 823T412 786ZM203 786Q203 773 198 761T183 740T162 726T137 721Q114 721 100 735T85 773Q85 786 90 797T105 818T126 832T151 838Q173 838 188 823T203 786ZM17 0L164 667H281L134 0H17Z"  />
<glyph unicode="&#xD0;" horiz-adv-x="736" d="M43 0L106 287H19L40 381H127L190 667H433Q489 667 540 646T631 588T693 498T717 382Q717 315 693 247T618 124T485 35T290 0H43ZM314 103Q379 103 431 125T520 184T576 271T596 374Q596 415 582 449T544 509T486 549T412 564H285L244 381H402L381 287H223L183 103H314Z"  />
<glyph unicode="&#xD1;" horiz-adv-x="720" d="M536 726Q509 726 494 738T468 765T446 792T417 804Q400 804 387 787T365 732H306Q319 794 346 830T424 866Q451 866 466 854T492 827T515 800T544 788Q561 788 574 805T597 860H655Q642 798 615 762T536 726ZM482 0L241 483L134 0H17L164 667H284L521 199L625 667H742L595 0H482Z"  />
<glyph unicode="&#xD2;" horiz-adv-x="765" d="M493 728L360 872H460L568 728H493ZM371 -12Q304 -12 246 8T144 67T76 160T51 284Q51 367 80 439T162 564T283 647T434 678Q501 678 559 658T660 600T728 507T753 383Q753 300 724 228T643 103T522 19T371 -12ZM377 92Q429 92 475 113T555 173T610 263T630 375Q630 422 615 459T572 521T507 560T426 574Q374 574 328 553T248 493T194 403T174 291Q174 244 189 207T232 145T297 106T377 92Z"  />
<glyph unicode="&#xD3;" horiz-adv-x="765" d="M491 728H414L586 872H688L491 728ZM371 -12Q304 -12 246 8T144 67T76 160T51 284Q51 367 80 439T162 564T283 647T434 678Q501 678 559 658T660 600T728 507T753 383Q753 300 724 228T643 103T522 19T371 -12ZM377 92Q429 92 475 113T555 173T610 263T630 375Q630 422 615 459T572 521T507 560T426 574Q374 574 328 553T248 493T194 403T174 291Q174 244 189 207T232 145T297 106T377 92Z"  />
<glyph unicode="&#xD4;" horiz-adv-x="765" d="M571 728L514 825L419 728H350L475 872H571L635 728H571ZM371 -12Q304 -12 246 8T144 67T76 160T51 284Q51 367 80 439T162 564T283 647T434 678Q501 678 559 658T660 600T728 507T753 383Q753 300 724 228T643 103T522 19T371 -12ZM377 92Q429 92 475 113T555 173T610 263T630 375Q630 422 615 459T572 521T507 560T426 574Q374 574 328 553T248 493T194 403T174 291Q174 244 189 207T232 145T297 106T377 92Z"  />
<glyph unicode="&#xD5;" horiz-adv-x="765" d="M561 726Q534 726 519 738T493 765T471 792T442 804Q425 804 412 787T390 732H331Q344 794 371 830T449 866Q476 866 491 854T517 827T540 800T569 788Q586 788 599 805T622 860H680Q667 798 640 762T561 726ZM371 -12Q304 -12 246 8T144 67T76 160T51 284Q51 367 80 439T162 564T283 647T434 678Q501 678 559 658T660 600T728 507T753 383Q753 300 724 228T643 103T522 19T371 -12ZM377 92Q429 92 475 113T555 173T610 263T630 375Q630 422 615 459T572 521T507 560T426 574Q374 574 328 553T248 493T194 403T174 291Q174 244 189 207T232 145T297 106T377 92Z"  />
<glyph unicode="&#xD6;" horiz-adv-x="765" d="M666 787Q666 774 661 762T646 741T625 727T600 722Q577 722 563 736T548 774Q548 787 553 798T568 819T589 833T614 839Q636 839 651 824T666 787ZM457 787Q457 774 452 762T437 741T416 727T391 722Q368 722 354 736T339 774Q339 787 344 798T359 819T380 833T405 839Q427 839 442 824T457 787ZM371 -12Q304 -12 246 8T144 67T76 160T51 284Q51 367 80 439T162 564T283 647T434 678Q501 678 559 658T660 600T728 507T753 383Q753 300 724 228T643 103T522 19T371 -12ZM377 92Q429 92 475 113T555 173T610 263T630 375Q630 422 615 459T572 521T507 560T426 574Q374 574 328 553T248 493T194 403T174 291Q174 244 189 207T232 145T297 106T377 92Z"  />
<glyph unicode="&#xD7;" horiz-adv-x="502" d="M265 286L87 140L44 192L224 339L113 481L167 524L277 382L456 528L497 477L319 330L428 188L375 144L265 286Z"  />
<glyph unicode="&#xD8;" horiz-adv-x="765" d="M371 -12Q313 -12 262 3T169 47L125 0H38L122 89Q88 126 70 175T51 284Q51 367 80 439T162 564T283 647T434 678Q489 678 538 664T627 624L668 667H755L676 584Q712 546 732 496T753 383Q753 300 724 228T643 103T522 19T371 -12ZM377 92Q429 92 475 113T555 173T610 263T630 375Q630 412 621 442T594 496L249 131Q275 111 307 102T377 92ZM174 291Q174 225 205 177L548 540Q495 574 426 574Q374 574 328 553T248 493T194 403T174 291Z"  />
<glyph unicode="&#xD9;" horiz-adv-x="720" d="M469 728L336 872H436L544 728H469ZM348 -12Q280 -12 229 4T142 51T88 123T70 216Q70 228 71 242T75 264L164 667H283L194 266Q193 261 192 251T190 230Q190 201 200 176T231 132T280 102T348 91Q431 91 474 138T535 266L623 667H742L653 264Q639 203 617 152T558 65T470 8T348 -12Z"  />
<glyph unicode="&#xDA;" horiz-adv-x="720" d="M468 728H391L563 872H665L468 728ZM348 -12Q280 -12 229 4T142 51T88 123T70 216Q70 228 71 242T75 264L164 667H283L194 266Q193 261 192 251T190 230Q190 201 200 176T231 132T280 102T348 91Q431 91 474 138T535 266L623 667H742L653 264Q639 203 617 152T558 65T470 8T348 -12Z"  />
<glyph unicode="&#xDB;" horiz-adv-x="720" d="M551 728L494 825L399 728H330L455 872H551L615 728H551ZM348 -12Q280 -12 229 4T142 51T88 123T70 216Q70 228 71 242T75 264L164 667H283L194 266Q193 261 192 251T190 230Q190 201 200 176T231 132T280 102T348 91Q431 91 474 138T535 266L623 667H742L653 264Q639 203 617 152T558 65T470 8T348 -12Z"  />
<glyph unicode="&#xDC;" horiz-adv-x="720" d="M644 787Q644 774 639 762T624 741T603 727T578 722Q555 722 541 736T526 774Q526 787 531 798T546 819T567 833T592 839Q614 839 629 824T644 787ZM435 787Q435 774 430 762T415 741T394 727T369 722Q346 722 332 736T317 774Q317 787 322 798T337 819T358 833T383 839Q405 839 420 824T435 787ZM348 -12Q280 -12 229 4T142 51T88 123T70 216Q70 228 71 242T75 264L164 667H283L194 266Q193 261 192 251T190 230Q190 201 200 176T231 132T280 102T348 91Q431 91 474 138T535 266L623 667H742L653 264Q639 203 617 152T558 65T470 8T348 -12Z"  />
<glyph unicode="&#xDD;" horiz-adv-x="637" d="M429 728H352L524 872H626L429 728ZM207 0L268 277L95 667H222L342 382L588 667H729L385 277L324 0H207Z"  />
<glyph unicode="&#xDE;" horiz-adv-x="609" d="M17 0L164 667H281L257 555H425Q464 555 497 541T554 502T592 445T606 375Q606 335 592 293T545 216T462 159T339 137H164L134 0H17ZM346 240Q380 240 406 250T449 278T475 317T484 364Q484 402 457 427T389 452H234L187 240H346Z"  />
<glyph unicode="&#xDF;" horiz-adv-x="623" d="M588 152Q588 120 575 91T536 38T474 2T392 -12Q321 -12 273 9T182 78L243 144Q269 112 305 93T395 73Q437 73 460 93T484 139Q484 158 467 169T425 191T370 210T315 234T272 270T255 326Q255 360 268 384T301 424T343 453T386 476T419 499T432 527Q432 554 405 569T342 584Q297 584 268 558T227 485L120 0H15L122 485Q131 525 149 560T195 621T261 662T347 677Q383 677 418 668T481 642T526 600T543 546Q543 513 530 491T496 452T451 423T407 400T373 375T359 343Q359 326 376 315T418 294T473 274T528 249T571 210T588 152Z"  />
<glyph unicode="&#xE0;" horiz-adv-x="537" d="M344 556L211 700H311L419 556H344ZM317 0L328 51Q299 22 264 5T181 -12Q150 -12 121 -4T70 22T35 66T21 128Q21 170 35 203T74 259T131 294T200 306Q255 306 296 289T369 238L384 304Q385 307 385 315T386 329Q386 364 354 386T267 408Q227 408 193 395T130 358L102 433Q185 495 288 495Q329 495 366 487T431 461T477 416T494 349Q494 340 492 325T488 300L422 0H317ZM227 60Q263 60 291 73T340 108L357 180Q340 206 308 220T235 234Q187 234 158 207T129 137Q129 99 155 80T227 60Z"  />
<glyph unicode="&#xE1;" horiz-adv-x="537" d="M347 556H270L442 700H544L347 556ZM317 0L328 51Q299 22 264 5T181 -12Q150 -12 121 -4T70 22T35 66T21 128Q21 170 35 203T74 259T131 294T200 306Q255 306 296 289T369 238L384 304Q385 307 385 315T386 329Q386 364 354 386T267 408Q227 408 193 395T130 358L102 433Q185 495 288 495Q329 495 366 487T431 461T477 416T494 349Q494 340 492 325T488 300L422 0H317ZM227 60Q263 60 291 73T340 108L357 180Q340 206 308 220T235 234Q187 234 158 207T129 137Q129 99 155 80T227 60Z"  />
<glyph unicode="&#xE2;" horiz-adv-x="537" d="M426 556L369 653L274 556H205L330 700H426L490 556H426ZM317 0L328 51Q299 22 264 5T181 -12Q150 -12 121 -4T70 22T35 66T21 128Q21 170 35 203T74 259T131 294T200 306Q255 306 296 289T369 238L384 304Q385 307 385 315T386 329Q386 364 354 386T267 408Q227 408 193 395T130 358L102 433Q185 495 288 495Q329 495 366 487T431 461T477 416T494 349Q494 340 492 325T488 300L422 0H317ZM227 60Q263 60 291 73T340 108L357 180Q340 206 308 220T235 234Q187 234 158 207T129 137Q129 99 155 80T227 60Z"  />
<glyph unicode="&#xE3;" horiz-adv-x="537" d="M415 554Q388 554 373 566T347 593T325 620T296 632Q279 632 266 615T244 560H185Q198 622 225 658T303 694Q330 694 345 682T371 655T394 628T423 616Q440 616 453 633T476 688H534Q521 626 494 590T415 554ZM317 0L328 51Q299 22 264 5T181 -12Q150 -12 121 -4T70 22T35 66T21 128Q21 170 35 203T74 259T131 294T200 306Q255 306 296 289T369 238L384 304Q385 307 385 315T386 329Q386 364 354 386T267 408Q227 408 193 395T130 358L102 433Q185 495 288 495Q329 495 366 487T431 461T477 416T494 349Q494 340 492 325T488 300L422 0H317ZM227 60Q263 60 291 73T340 108L357 180Q340 206 308 220T235 234Q187 234 158 207T129 137Q129 99 155 80T227 60Z"  />
<glyph unicode="&#xE4;" horiz-adv-x="537" d="M518 615Q518 602 513 590T498 569T477 555T452 550Q429 550 415 564T400 602Q400 615 405 626T420 647T441 661T466 667Q488 667 503 652T518 615ZM309 615Q309 602 304 590T289 569T268 555T243 550Q220 550 206 564T191 602Q191 615 196 626T211 647T232 661T257 667Q279 667 294 652T309 615ZM317 0L328 51Q299 22 264 5T181 -12Q150 -12 121 -4T70 22T35 66T21 128Q21 170 35 203T74 259T131 294T200 306Q255 306 296 289T369 238L384 304Q385 307 385 315T386 329Q386 364 354 386T267 408Q227 408 193 395T130 358L102 433Q185 495 288 495Q329 495 366 487T431 461T477 416T494 349Q494 340 492 325T488 300L422 0H317ZM227 60Q263 60 291 73T340 108L357 180Q340 206 308 220T235 234Q187 234 158 207T129 137Q129 99 155 80T227 60Z"  />
<glyph unicode="&#xE5;" horiz-adv-x="537" d="M356 550Q314 550 289 575T263 643Q263 666 272 686T296 722T332 746T375 755Q417 755 442 730T468 662Q468 639 459 619T435 584T400 559T356 550ZM360 601Q383 601 400 617T417 657Q417 678 405 691T371 704Q348 704 331 688T314 648Q314 628 327 615T360 601ZM317 0L328 51Q299 22 264 5T181 -12Q150 -12 121 -4T70 22T35 66T21 128Q21 170 35 203T74 259T131 294T200 306Q255 306 296 289T369 238L384 304Q385 307 385 315T386 329Q386 364 354 386T267 408Q227 408 193 395T130 358L102 433Q185 495 288 495Q329 495 366 487T431 461T477 416T494 349Q494 340 492 325T488 300L422 0H317ZM227 60Q263 60 291 73T340 108L357 180Q340 206 308 220T235 234Q187 234 158 207T129 137Q129 99 155 80T227 60Z"  />
<glyph unicode="&#xE6;" horiz-adv-x="886" d="M470 207Q470 206 470 201T469 191Q469 170 478 149T506 112T551 85T615 74Q647 74 682 84T744 115L777 41Q745 17 704 3T616 -12Q540 -12 489 14T407 89Q366 48 313 18T190 -12Q157 -12 127 -4T73 22T35 65T21 128Q21 171 36 204T76 260T133 294T200 306Q254 306 298 289T369 240L384 304Q386 311 386 317T386 329Q386 367 352 387T267 408Q226 408 194 395T130 358L102 433Q144 465 190 480T288 495Q354 495 398 472T454 391Q482 436 530 465T647 495Q689 495 726 481T792 440T836 374T852 282Q852 272 851 260T849 238T846 219T843 207H470ZM757 282Q758 287 758 296Q758 320 749 340T724 376T684 400T633 409Q600 409 575 398T531 368T501 327T483 282H757ZM361 132Q356 150 356 173V181Q348 194 335 203T306 220T271 230T235 234Q189 234 159 208T129 137Q129 99 156 80T227 60Q261 60 295 76T361 132Z"  />
<glyph unicode="&#xE7;" horiz-adv-x="498" d="M211 -194Q173 -194 143 -183T96 -154L127 -111Q144 -128 166 -137T212 -146Q238 -146 252 -135T266 -106Q266 -95 258 -88T234 -80Q214 -80 202 -95L166 -72L204 -6Q126 9 80 65T33 206Q33 266 54 318T113 410T201 472T311 495Q382 495 428 470T500 402L421 342Q404 371 375 386T311 402Q272 402 241 387T187 345T153 284T141 211Q141 179 151 155T180 115T222 90T274 81Q309 81 337 96T385 134L442 64Q413 34 370 11T264 -12H256L231 -53Q245 -42 263 -42Q288 -42 304 -58T321 -103Q321 -145 290 -169T211 -194Z"  />
<glyph unicode="&#xE8;" horiz-adv-x="557" d="M277 -12Q221 -12 176 3T99 46T50 114T33 204Q33 263 54 316T112 408T199 471T309 495Q356 495 395 480T463 437T507 370T523 282Q523 262 520 240T513 207H140Q139 205 139 200T139 191Q139 170 148 149T175 112T220 85T285 74Q319 74 354 84T414 115L448 41Q413 17 368 3T277 -12ZM428 282Q428 284 428 288T429 295Q429 343 397 376T302 409Q273 409 248 399T202 371T169 330T151 282H426H428ZM353 556L220 700H320L428 556H353Z"  />
<glyph unicode="&#xE9;" horiz-adv-x="557" d="M277 -12Q221 -12 176 3T99 46T50 114T33 204Q33 263 54 316T112 408T199 471T309 495Q356 495 395 480T463 437T507 370T523 282Q523 262 520 240T513 207H140Q139 205 139 200T139 191Q139 170 148 149T175 112T220 85T285 74Q319 74 354 84T414 115L448 41Q413 17 368 3T277 -12ZM428 282Q428 284 428 288T429 295Q429 343 397 376T302 409Q273 409 248 399T202 371T169 330T151 282H426H428ZM354 556H277L449 700H551L354 556Z"  />
<glyph unicode="&#xEA;" horiz-adv-x="557" d="M277 -12Q221 -12 176 3T99 46T50 114T33 204Q33 263 54 316T112 408T199 471T309 495Q356 495 395 480T463 437T507 370T523 282Q523 262 520 240T513 207H140Q139 205 139 200T139 191Q139 170 148 149T175 112T220 85T285 74Q319 74 354 84T414 115L448 41Q413 17 368 3T277 -12ZM428 282Q428 284 428 288T429 295Q429 343 397 376T302 409Q273 409 248 399T202 371T169 330T151 282H426H428ZM433 556L376 653L281 556H212L337 700H433L497 556H433Z"  />
<glyph unicode="&#xEB;" horiz-adv-x="557" d="M277 -12Q221 -12 176 3T99 46T50 114T33 204Q33 263 54 316T112 408T199 471T309 495Q356 495 395 480T463 437T507 370T523 282Q523 262 520 240T513 207H140Q139 205 139 200T139 191Q139 170 148 149T175 112T220 85T285 74Q319 74 354 84T414 115L448 41Q413 17 368 3T277 -12ZM428 282Q428 284 428 288T429 295Q429 343 397 376T302 409Q273 409 248 399T202 371T169 330T151 282H426H428ZM529 615Q529 602 524 590T509 569T488 555T463 550Q440 550 426 564T411 602Q411 615 416 626T431 647T452 661T477 667Q499 667 514 652T529 615ZM320 615Q320 602 315 590T300 569T279 555T254 550Q231 550 217 564T202 602Q202 615 207 626T222 647T243 661T268 667Q290 667 305 652T320 615Z"  />
<glyph unicode="&#xEC;" horiz-adv-x="241" d="M189 556L56 700H156L264 556H189ZM14 0L121 483H226L119 0H14Z"  />
<glyph unicode="&#xED;" horiz-adv-x="241" d="M190 556H113L285 700H387L190 556ZM14 0L121 483H226L119 0H14Z"  />
<glyph unicode="&#xEE;" horiz-adv-x="241" d="M268 556L211 653L116 556H47L172 700H268L332 556H268ZM14 0L121 483H226L119 0H14Z"  />
<glyph unicode="&#xEF;" horiz-adv-x="241" d="M365 615Q365 602 360 590T345 569T324 555T299 550Q276 550 262 564T247 602Q247 615 252 626T267 647T288 661T313 667Q335 667 350 652T365 615ZM156 615Q156 602 151 590T136 569T115 555T90 550Q67 550 53 564T38 602Q38 615 43 626T58 647T79 661T104 667Q126 667 141 652T156 615ZM14 0L121 483H226L119 0H14Z"  />
<glyph unicode="&#xF0;" horiz-adv-x="574" d="M153 548L278 585Q264 598 250 609T220 632L294 710Q351 666 396 620L510 654L521 603L435 577Q489 512 516 444T544 305Q544 240 525 183T469 82T382 13T267 -12Q214 -12 171 3T96 46T48 112T31 197Q31 254 50 303T102 389T181 447T277 468Q331 468 375 442T443 361Q430 408 398 454T323 544L164 496L153 548ZM269 81Q302 81 330 94T380 132T414 188T426 256Q426 278 418 299T394 338T354 365T295 376Q262 376 234 363T185 326T152 272T140 204Q140 149 173 115T269 81Z"  />
<glyph unicode="&#xF1;" horiz-adv-x="568" d="M346 0L413 303Q415 311 416 318T417 334Q417 371 391 386T327 402Q290 402 257 382T199 337L124 0H19L126 483H231L216 418Q231 432 249 446T287 471T331 488T381 495Q449 495 489 463T530 374Q530 367 528 354T524 333L451 0H346ZM424 554Q397 554 382 566T356 593T334 620T305 632Q288 632 275 615T253 560H194Q207 622 234 658T312 694Q339 694 354 682T380 655T403 628T432 616Q449 616 462 633T485 688H543Q530 626 503 590T424 554Z"  />
<glyph unicode="&#xF2;" horiz-adv-x="574" d="M264 -12Q209 -12 166 4T94 49T49 118T33 206Q33 263 53 315T110 407T197 471T308 495Q363 495 406 479T478 434T523 366T539 278Q539 221 519 169T462 77T375 12T264 -12ZM268 81Q304 81 333 97T384 140T418 201T430 273Q430 333 397 367T304 402Q268 402 239 386T188 343T154 282T142 210Q142 150 175 116T268 81ZM356 556L223 700H323L431 556H356Z"  />
<glyph unicode="&#xF3;" horiz-adv-x="574" d="M264 -12Q209 -12 166 4T94 49T49 118T33 206Q33 263 53 315T110 407T197 471T308 495Q363 495 406 479T478 434T523 366T539 278Q539 221 519 169T462 77T375 12T264 -12ZM268 81Q304 81 333 97T384 140T418 201T430 273Q430 333 397 367T304 402Q268 402 239 386T188 343T154 282T142 210Q142 150 175 116T268 81ZM356 556H279L451 700H553L356 556Z"  />
<glyph unicode="&#xF4;" horiz-adv-x="574" d="M264 -12Q209 -12 166 4T94 49T49 118T33 206Q33 263 53 315T110 407T197 471T308 495Q363 495 406 479T478 434T523 366T539 278Q539 221 519 169T462 77T375 12T264 -12ZM268 81Q304 81 333 97T384 140T418 201T430 273Q430 333 397 367T304 402Q268 402 239 386T188 343T154 282T142 210Q142 150 175 116T268 81ZM436 556L379 653L284 556H215L340 700H436L500 556H436Z"  />
<glyph unicode="&#xF5;" horiz-adv-x="574" d="M264 -12Q209 -12 166 4T94 49T49 118T33 206Q33 263 53 315T110 407T197 471T308 495Q363 495 406 479T478 434T523 366T539 278Q539 221 519 169T462 77T375 12T264 -12ZM268 81Q304 81 333 97T384 140T418 201T430 273Q430 333 397 367T304 402Q268 402 239 386T188 343T154 282T142 210Q142 150 175 116T268 81ZM427 554Q400 554 385 566T359 593T337 620T308 632Q291 632 278 615T256 560H197Q210 622 237 658T315 694Q342 694 357 682T383 655T406 628T435 616Q452 616 465 633T488 688H546Q533 626 506 590T427 554Z"  />
<glyph unicode="&#xF6;" horiz-adv-x="574" d="M264 -12Q209 -12 166 4T94 49T49 118T33 206Q33 263 53 315T110 407T197 471T308 495Q363 495 406 479T478 434T523 366T539 278Q539 221 519 169T462 77T375 12T264 -12ZM268 81Q304 81 333 97T384 140T418 201T430 273Q430 333 397 367T304 402Q268 402 239 386T188 343T154 282T142 210Q142 150 175 116T268 81ZM531 615Q531 602 526 590T511 569T490 555T465 550Q442 550 428 564T413 602Q413 615 418 626T433 647T454 661T479 667Q501 667 516 652T531 615ZM322 615Q322 602 317 590T302 569T281 555T256 550Q233 550 219 564T204 602Q204 615 209 626T224 647T245 661T270 667Q292 667 307 652T322 615Z"  />
<glyph unicode="&#xF7;" horiz-adv-x="511" d="M42 304L57 371H510L495 304H42ZM230 98Q209 98 195 112T180 148Q180 172 197 189T240 206Q260 206 274 192T289 156Q289 132 272 115T230 98ZM311 466Q291 466 277 480T262 516Q262 540 279 557T321 574Q342 574 356 560T371 524Q371 500 353 483T311 466Z"  />
<glyph unicode="&#xF8;" horiz-adv-x="574" d="M-6 0L72 74Q33 128 33 206Q33 263 53 315T110 407T197 471T308 495Q356 495 395 483T463 447L500 483H573L498 411Q518 384 528 351T539 278Q539 221 519 169T462 77T375 12T264 -12Q214 -12 175 1T106 37L67 0H-6ZM268 81Q304 81 333 97T384 140T418 201T430 273Q430 308 418 335L182 109Q215 81 268 81ZM142 210Q142 175 152 151L387 375Q354 402 304 402Q268 402 239 386T188 343T154 282T142 210Z"  />
<glyph unicode="&#xF9;" horiz-adv-x="567" d="M226 483L159 181Q157 173 156 166T154 150Q154 113 180 97T244 81Q281 81 315 101T373 147L447 483H552L445 0H340L355 66Q340 52 322 38T284 13T240 -5T190 -12Q122 -12 82 20T42 110Q42 117 43 129T47 150L121 483H226ZM355 556L222 700H322L430 556H355Z"  />
<glyph unicode="&#xFA;" horiz-adv-x="567" d="M226 483L159 181Q157 173 156 166T154 150Q154 113 180 97T244 81Q281 81 315 101T373 147L447 483H552L445 0H340L355 66Q340 52 322 38T284 13T240 -5T190 -12Q122 -12 82 20T42 110Q42 117 43 129T47 150L121 483H226ZM354 556H277L449 700H551L354 556Z"  />
<glyph unicode="&#xFB;" horiz-adv-x="567" d="M226 483L159 181Q157 173 156 166T154 150Q154 113 180 97T244 81Q281 81 315 101T373 147L447 483H552L445 0H340L355 66Q340 52 322 38T284 13T240 -5T190 -12Q122 -12 82 20T42 110Q42 117 43 129T47 150L121 483H226ZM432 556L375 653L280 556H211L336 700H432L496 556H432Z"  />
<glyph unicode="&#xFC;" horiz-adv-x="567" d="M226 483L159 181Q157 173 156 166T154 150Q154 113 180 97T244 81Q281 81 315 101T373 147L447 483H552L445 0H340L355 66Q340 52 322 38T284 13T240 -5T190 -12Q122 -12 82 20T42 110Q42 117 43 129T47 150L121 483H226ZM531 615Q531 602 526 590T511 569T490 555T465 550Q442 550 428 564T413 602Q413 615 418 626T433 647T454 661T479 667Q501 667 516 652T531 615ZM322 615Q322 602 317 590T302 569T281 555T256 550Q233 550 219 564T204 602Q204 615 209 626T224 647T245 661T270 667Q292 667 307 652T322 615Z"  />
<glyph unicode="&#xFD;" horiz-adv-x="567" d="M352 556H275L447 700H549L352 556ZM199 -196Q123 -196 68 -177T-28 -113L36 -43Q48 -60 65 -73T104 -94T149 -106T197 -110Q262 -110 296 -75T346 25L358 80Q326 51 287 28T194 4Q163 4 136 11T89 33T58 71T46 125Q46 132 46 141T51 166L121 483H226L162 196Q160 187 159 179T158 165Q158 145 165 132T185 111T214 100T248 97Q286 97 319 117T376 162L447 483H552L450 25Q427 -78 365 -137T199 -196Z"  />
<glyph unicode="&#xFE;" horiz-adv-x="579" d="M294 -12Q242 -12 200 9T134 69L78 -184H-27L161 667H266L212 419Q242 456 279 475T363 495Q446 495 497 444T548 296Q548 239 531 184T482 86T402 15T294 -12ZM278 81Q314 81 343 97T394 140T426 202T438 275Q438 334 405 368T319 402Q281 402 248 383T193 334L151 147Q168 119 200 100T278 81Z"  />
<glyph unicode="&#xFF;" horiz-adv-x="567" d="M525 615Q525 602 520 590T505 569T484 555T459 550Q436 550 422 564T407 602Q407 615 412 626T427 647T448 661T473 667Q495 667 510 652T525 615ZM316 615Q316 602 311 590T296 569T275 555T250 550Q227 550 213 564T198 602Q198 615 203 626T218 647T239 661T264 667Q286 667 301 652T316 615ZM199 -196Q123 -196 68 -177T-28 -113L36 -43Q48 -60 65 -73T104 -94T149 -106T197 -110Q262 -110 296 -75T346 25L358 80Q326 51 287 28T194 4Q163 4 136 11T89 33T58 71T46 125Q46 132 46 141T51 166L121 483H226L162 196Q160 187 159 179T158 165Q158 145 165 132T185 111T214 100T248 97Q286 97 319 117T376 162L447 483H552L450 25Q427 -78 365 -137T199 -196Z"  />
<glyph unicode="&#x152;" horiz-adv-x="1093" d="M535 0L553 87Q516 42 461 15T331 -12Q271 -12 220 10T132 71T73 164T51 284Q51 372 81 444T163 568T283 648T428 677Q502 677 562 647T655 546L682 667H1139L1116 564H776L738 392H1071L1048 289H715L674 103H1014L992 0H535ZM628 422Q612 495 560 534T433 573Q378 573 331 551T249 491T194 402T174 291Q174 246 188 209T229 146T291 106T370 92Q434 92 490 123T581 212L628 422Z"  />
<glyph unicode="&#x153;" horiz-adv-x="945" d="M533 207Q532 205 532 201T532 191Q532 169 541 148T569 111T614 84T676 74Q710 74 745 85T803 115L837 41Q805 18 762 3T668 -12Q625 -12 591 -1T532 29T490 68T467 108Q452 90 434 69T391 30T335 0T262 -12Q211 -12 169 3T97 46T50 114T33 206Q33 261 52 313T108 405T194 470T306 495Q347 495 379 483T434 453T473 414T495 375Q509 393 528 414T572 453T628 483T700 495Q744 495 782 481T850 440T895 374T912 282Q912 262 909 242T902 207H533ZM817 282Q817 284 817 287T818 295Q818 318 811 339T788 375T749 400T693 409Q662 409 637 397T592 367T560 326T544 282H817ZM426 273Q426 307 416 331T389 371T350 394T302 402Q269 402 240 387T189 346T155 284T142 210Q142 150 174 116T266 81Q300 81 329 96T380 138T414 200T426 273Z"  />
<glyph unicode="&#x160;" horiz-adv-x="594" d="M350 728L286 872H351L407 776L503 872H571L446 728H350ZM295 -12Q248 -12 204 -3T123 22T56 61T7 111L81 196Q116 148 175 120T304 92Q336 92 359 101T396 124T418 155T425 188Q425 215 401 233T340 267T261 298T182 336T122 390T97 470Q97 510 114 547T165 614T244 660T348 678Q426 678 493 650T603 571L528 487Q492 532 438 553T331 575Q307 575 287 568T253 550T230 523T221 490Q221 465 245 448T306 415T385 384T464 346T524 291T549 210Q549 166 532 126T483 56T403 7T295 -12Z"  />
<glyph unicode="&#x161;" horiz-adv-x="472" d="M214 -12Q148 -12 91 10T-4 75L58 147Q68 134 85 121T124 97T171 79T223 72Q265 72 288 91T311 137Q311 156 293 168T246 191T186 213T126 241T80 280T61 338Q61 369 73 397T110 447T171 482T253 495Q315 495 367 473T450 417L393 347Q385 359 370 371T336 392T295 406T250 412Q210 412 188 396T166 355Q166 337 184 326T230 304T290 282T350 254T396 213T415 153Q415 120 402 90T363 38T300 2T214 -12ZM256 556L192 700H257L313 604L409 700H477L352 556H256Z"  />
<glyph unicode="&#x178;" horiz-adv-x="637" d="M604 787Q604 774 599 762T584 741T563 727T538 722Q515 722 501 736T486 774Q486 787 491 798T506 819T527 833T552 839Q574 839 589 824T604 787ZM395 787Q395 774 390 762T375 741T354 727T329 722Q306 722 292 736T277 774Q277 787 282 798T297 819T318 833T343 839Q365 839 380 824T395 787ZM207 0L268 277L95 667H222L342 382L588 667H729L385 277L324 0H207Z"  />
<glyph unicode="&#x17D;" horiz-adv-x="589" d="M355 728L291 872H356L412 776L508 872H576L451 728H355ZM-10 0L11 95L449 564H115L138 667H631L610 573L172 103H513L491 0H-10Z"  />
<glyph unicode="&#x17E;" horiz-adv-x="476" d="M-8 0L10 80L313 392H79L100 483H479L462 407L154 92H395L376 0H-8ZM254 556L190 700H255L311 604L407 700H475L350 556H254Z"  />
<glyph unicode="&#x192;" horiz-adv-x="445" d="M-39 -161L51 245H-9V338H71L112 520Q128 592 169 634T281 677Q315 677 347 668T407 632L360 551Q350 563 336 568T306 574Q276 574 255 554T226 497L191 338H315V245H171L80 -161H-39Z"  />
<glyph unicode="&#x2C6;" horiz-adv-x="285" d="M290 556L233 653L138 556H69L194 700H290L354 556H290Z"  />
<glyph unicode="&#x2DC;" horiz-adv-x="321" d="M300 554Q273 554 258 566T232 593T210 620T181 632Q164 632 151 615T129 560H70Q83 622 110 658T188 694Q215 694 230 682T256 655T279 628T308 616Q325 616 338 633T361 688H419Q406 626 379 590T300 554Z"  />
<glyph unicode="&#x2013;" horiz-adv-x="593" d="M20 197L39 287H572L553 197H20Z"  />
<glyph unicode="&#x2014;" horiz-adv-x="833" d="M20 197L39 287H812L793 197H20Z"  />
<glyph unicode="&#x2018;" horiz-adv-x="245" d="M99 494Q99 520 109 547T138 598T180 643T232 678L271 637Q244 624 217 602T179 553H189Q210 553 226 539T242 497Q242 482 236 468T219 444T195 428T166 422Q139 422 119 440T99 494Z"  />
<glyph unicode="&#x2019;" horiz-adv-x="245" d="M276 606Q276 579 266 552T237 501T195 456T143 422L104 463Q131 476 158 498T196 547Q194 546 191 546T186 546Q165 546 149 561T133 603Q133 618 139 631T156 655T180 671T209 677Q236 677 256 659T276 606Z"  />
<glyph unicode="&#x201A;" horiz-adv-x="245" d="M155 58Q155 31 145 4T116 -47T74 -92T21 -127L-18 -86Q9 -73 36 -51T74 -2H65Q43 -2 27 13T11 55Q11 70 17 83T35 107T59 123T88 129Q114 129 134 111T155 58Z"  />
<glyph unicode="&#x201C;" horiz-adv-x="430" d="M287 494Q287 520 297 547T326 598T368 643T421 678L460 637Q433 624 406 602T368 553H377Q399 553 415 539T431 497Q431 482 425 468T407 444T383 428T354 422Q328 422 308 440T287 494ZM103 494Q103 520 113 547T142 598T184 643T236 678L275 637Q248 624 221 602T183 553H193Q214 553 230 539T246 497Q246 482 240 468T223 444T199 428T170 422Q143 422 123 440T103 494Z"  />
<glyph unicode="&#x201D;" horiz-adv-x="430" d="M276 606Q276 579 266 552T237 501T195 456T143 422L104 463Q131 476 158 498T196 547Q194 546 191 546T186 546Q165 546 149 561T133 603Q133 618 139 631T156 655T180 671T209 677Q236 677 256 659T276 606ZM461 606Q461 579 451 552T422 501T380 456T327 422L288 463Q315 476 342 498T380 547Q378 546 376 546T371 546Q349 546 333 561T317 603Q317 618 323 631T341 655T365 671T394 677Q420 677 440 659T461 606Z"  />
<glyph unicode="&#x201E;" horiz-adv-x="430" d="M155 58Q155 31 145 4T116 -47T74 -92T21 -127L-18 -86Q9 -73 36 -51T74 -2H65Q43 -2 27 13T11 55Q11 70 17 83T35 107T59 123T88 129Q114 129 134 111T155 58ZM339 58Q339 31 329 4T300 -47T258 -92T206 -127L167 -86Q194 -73 221 -51T259 -2H249Q228 -2 212 13T196 55Q196 70 202 83T219 107T243 123T272 129Q299 129 319 111T339 58Z"  />
<glyph unicode="&#x2020;" horiz-adv-x="271" d="M224 530L183 327H124L173 530L83 526L95 580L184 577L202 677H261L235 577L324 580L312 526L224 530Z"  />
<glyph unicode="&#x2021;" horiz-adv-x="271" d="M312 526L224 530L179 328L269 332L257 278L169 281L150 180H91L118 281L28 278L40 332L128 328L173 530L83 526L95 580L183 577L202 677H261L235 577L324 580L312 526Z"  />
<glyph unicode="&#x2022;" horiz-adv-x="358" d="M294 254Q294 228 284 206T256 166T216 139T167 129Q122 129 93 158T64 232Q64 257 74 280T102 319T143 346T192 356Q236 356 265 327T294 254Z"  />
<glyph unicode="&#x2026;" horiz-adv-x="735" d="M75 -11Q49 -11 31 8T12 54Q12 85 34 107T88 129Q115 129 133 110T152 65Q152 33 130 11T75 -11ZM320 -11Q294 -11 276 8T257 54Q257 85 279 107T333 129Q360 129 378 110T397 65Q397 33 375 11T320 -11ZM565 -11Q539 -11 521 8T502 54Q502 85 524 107T578 129Q605 129 623 110T642 65Q642 33 620 11T565 -11Z"  />
<glyph unicode="&#x2030;" horiz-adv-x="1106" d="M75 0L648 667H716L142 0H75ZM519 -12Q487 -12 459 -3T410 25T377 68T364 125Q364 168 379 204T419 265T477 305T546 319Q577 319 605 310T655 283T688 240T701 182Q701 139 686 103T646 42T588 2T519 -12ZM522 55Q542 55 560 64T593 88T615 126T624 175Q624 209 601 231T543 253Q523 253 505 244T472 219T450 181T441 132Q441 99 464 77T522 55ZM240 346Q208 346 180 355T131 383T97 426T84 483Q84 526 99 562T139 623T197 663T266 677Q297 677 325 668T375 641T409 598T422 540Q422 497 407 461T367 400T309 360T240 346ZM242 413Q263 413 281 422T314 446T336 484T344 533Q344 567 322 589T264 611Q243 611 225 602T192 577T170 539T162 490Q162 457 184 435T242 413ZM878 -12Q846 -12 818 -3T769 25T736 68T723 125Q723 168 738 204T778 265T836 305T905 319Q936 319 964 310T1014 283T1047 240T1060 182Q1060 139 1045 103T1005 42T947 2T878 -12ZM881 55Q901 55 919 64T952 88T974 126T983 175Q983 209 960 231T902 253Q882 253 864 244T831 219T809 181T800 132Q800 99 823 77T881 55Z"  />
<glyph unicode="&#x2039;" horiz-adv-x="320" d="M149 63L29 243L229 420H333L129 238L245 63H149Z"  />
<glyph unicode="&#x203A;" horiz-adv-x="320" d="M173 420L293 240L93 63H-11L193 245L77 420H173Z"  />
<glyph unicode="&#x20AC;" horiz-adv-x="703" d="M397 -12Q336 -12 283 5T188 53T118 129T81 230H22L37 298H77Q78 317 80 335T85 371H53L69 439H105Q127 494 163 538T246 614T347 661T460 678Q516 678 561 665T642 628T704 572T746 503L634 463Q610 520 562 547T454 574Q387 574 329 538T236 439H517L502 371H210Q205 354 203 336T200 298H486L471 230H208Q225 167 275 130T403 92Q448 92 492 112T570 169L659 106Q631 73 599 51T532 14T463 -6T397 -12Z"  />
<glyph unicode="&#x2122;" horiz-adv-x="454" d="M436 447L476 629L361 447H353L318 629L278 447H250L298 667H341L370 507L469 667H512L464 447H436ZM195 641L152 447H124L167 641H105L110 667H262L257 641H195Z"  />


</font>
</defs>
</svg>
